<?xml version="1.0" encoding="UTF-8" standalone="no"?>
<!-- Created with Inkscape (http://www.inkscape.org/) -->

<svg
   width="46.355mm"
   height="17.145mm"
   viewBox="0 0 46.355 17.145"
   version="1.1"
   id="svg3666"
   xmlns="http://www.w3.org/2000/svg"
   xmlns:svg="http://www.w3.org/2000/svg">
  <defs
     id="defs3663">
    <clipPath
       clipPathUnits="userSpaceOnUse"
       id="clipPath1476">
      <path
         d="m 178.493,8351.511 h 37.542 V 8327.3 h -37.542 z"
         clip-rule="evenodd"
         id="path1474" />
    </clipPath>
    <clipPath
       clipPathUnits="userSpaceOnUse"
       id="clipPath1484">
      <path
         d="M 0,0 H 1920 V 8414 H 0 Z"
         id="path1482" />
    </clipPath>
    <clipPath
       clipPathUnits="userSpaceOnUse"
       id="clipPath1492">
      <path
         d="m 178,8326 h 39 v 26 h -39 z"
         id="path1490" />
    </clipPath>
    <clipPath
       clipPathUnits="userSpaceOnUse"
       id="clipPath1496">
      <path
         d="m 212.283,8327.3 c -0.961,0 -1.921,0.368 -2.654,1.105 l -12.365,12.433 -12.365,-12.433 c -1.465,-1.474 -3.841,-1.474 -5.307,0 -1.466,1.474 -1.466,3.863 0,5.337 l 17.672,17.769 17.672,-17.769 c 1.466,-1.474 1.466,-3.863 0,-5.337 -0.733,-0.737 -1.693,-1.105 -2.653,-1.105"
         clip-rule="evenodd"
         id="path1494" />
    </clipPath>
    <clipPath
       clipPathUnits="userSpaceOnUse"
       id="clipPath1500">
      <path
         d="m 178,8327 h 39 v 25 h -39 z"
         id="path1498" />
    </clipPath>
    <clipPath
       clipPathUnits="userSpaceOnUse"
       id="clipPath1338">
      <path
         d="m 145.199,8349.075 h 21.402 c -0.556,1.578 -1.462,3.025 -2.68,4.243 -2.143,2.143 -4.991,3.323 -8.021,3.323 -3.03,0 -5.878,-1.18 -8.021,-3.323 -1.218,-1.218 -2.124,-2.665 -2.68,-4.243 M 155.9,8326.4 c -4.841,0 -9.679,1.842 -13.365,5.528 -3.569,3.57 -5.535,8.318 -5.535,13.368 0,5.049 1.966,9.796 5.536,13.367 3.569,3.571 8.316,5.537 13.364,5.537 5.048,0 9.795,-1.966 13.365,-5.537 3.569,-3.571 5.535,-8.318 5.535,-13.367 0,-2.088 -1.692,-3.78 -3.779,-3.78 h -25.822 c 0.556,-1.578 1.462,-3.025 2.68,-4.243 4.423,-4.424 11.619,-4.423 16.042,0 1.475,1.476 3.868,1.476 5.344,0 1.475,-1.476 1.475,-3.869 -10e-4,-5.345 -3.684,-3.685 -8.525,-5.528 -13.364,-5.528"
         clip-rule="evenodd"
         id="path1336" />
    </clipPath>
    <clipPath
       clipPathUnits="userSpaceOnUse"
       id="clipPath1346">
      <path
         d="M 0,0 H 1920 V 8414 H 0 Z"
         id="path1344" />
    </clipPath>
    <clipPath
       clipPathUnits="userSpaceOnUse"
       id="clipPath1356">
      <path
         d="m 238.66,8326.4 c -4.83,0 -9.659,1.843 -13.336,5.528 -3.562,3.57 -5.524,8.318 -5.524,13.368 0,5.049 1.962,9.796 5.524,13.367 3.562,3.571 8.298,5.537 13.336,5.537 5.038,0 9.774,-1.966 13.336,-5.537 1.472,-1.476 1.472,-3.869 0,-5.345 -1.473,-1.476 -3.86,-1.476 -5.333,0 -2.137,2.143 -4.98,3.323 -8.003,3.323 -3.023,0 -5.866,-1.18 -8.004,-3.323 -2.137,-2.143 -3.315,-4.992 -3.315,-8.022 0,-3.031 1.178,-5.88 3.315,-8.023 4.414,-4.423 11.594,-4.423 16.007,0 1.473,1.476 3.86,1.476 5.333,0 1.472,-1.476 1.472,-3.869 0,-5.345 -3.677,-3.685 -8.506,-5.528 -13.336,-5.528"
         clip-rule="evenodd"
         id="path1354" />
    </clipPath>
    <clipPath
       clipPathUnits="userSpaceOnUse"
       id="clipPath1364">
      <path
         d="M 0,0 H 1920 V 8414 H 0 Z"
         id="path1362" />
    </clipPath>
    <clipPath
       clipPathUnits="userSpaceOnUse"
       id="clipPath1374">
      <path
         d="m 260.58,8363.943 h 7.546 V 8326.4 h -7.546 z"
         clip-rule="evenodd"
         id="path1372" />
    </clipPath>
    <clipPath
       clipPathUnits="userSpaceOnUse"
       id="clipPath1382">
      <path
         d="M 0,0 H 1920 V 8414 H 0 Z"
         id="path1380" />
    </clipPath>
    <clipPath
       clipPathUnits="userSpaceOnUse"
       id="clipPath1390">
      <path
         d="m 260,8326 h 9 v 38 h -9 z"
         id="path1388" />
    </clipPath>
    <clipPath
       clipPathUnits="userSpaceOnUse"
       id="clipPath1394">
      <path
         d="m 264.353,8326.4 c -2.084,0 -3.773,1.68 -3.773,3.753 v 30.037 c 0,2.073 1.689,3.753 3.773,3.753 2.084,0 3.773,-1.68 3.773,-3.753 v -30.037 c 0,-2.073 -1.689,-3.753 -3.773,-3.753"
         clip-rule="evenodd"
         id="path1392" />
    </clipPath>
    <clipPath
       clipPathUnits="userSpaceOnUse"
       id="clipPath1398">
      <path
         d="m 260,8326 h 9 v 38 h -9 z"
         id="path1396" />
    </clipPath>
    <clipPath
       clipPathUnits="userSpaceOnUse"
       id="clipPath1422">
      <path
         d="m 264.8,8367.8 c -0.118,0 -0.236,0.01 -0.354,0.018 -0.116,0.011 -0.234,0.029 -0.35,0.053 -0.114,0.023 -0.23,0.051 -0.342,0.085 -0.111,0.036 -0.223,0.076 -0.332,0.12 -0.107,0.045 -0.213,0.094 -0.318,0.15 -0.103,0.055 -0.205,0.115 -0.304,0.18 -0.095,0.065 -0.191,0.136 -0.283,0.21 -0.091,0.076 -0.18,0.156 -0.262,0.238 -0.083,0.083 -0.163,0.172 -0.239,0.263 -0.074,0.092 -0.145,0.185 -0.21,0.283 -0.065,0.098 -0.125,0.201 -0.18,0.304 -0.056,0.104 -0.105,0.211 -0.15,0.318 -0.044,0.109 -0.085,0.221 -0.12,0.332 -0.033,0.112 -0.062,0.228 -0.087,0.341 -0.022,0.116 -0.04,0.234 -0.052,0.35 -0.01,0.118 -0.017,0.237 -0.017,0.355 0,0.118 0.007,0.236 0.017,0.354 0.012,0.116 0.03,0.234 0.052,0.35 0.025,0.114 0.054,0.23 0.087,0.341 0.035,0.112 0.074,0.223 0.12,0.332 0.045,0.107 0.094,0.214 0.15,0.319 0.055,0.103 0.115,0.205 0.18,0.301 0.065,0.098 0.136,0.194 0.21,0.285 0.076,0.092 0.156,0.181 0.239,0.263 0.082,0.083 0.171,0.163 0.262,0.238 0.09,0.074 0.185,0.145 0.283,0.21 0.099,0.065 0.201,0.125 0.304,0.181 0.105,0.053 0.211,0.105 0.318,0.149 0.109,0.045 0.221,0.085 0.332,0.121 0.112,0.033 0.228,0.062 0.342,0.084 0.116,0.025 0.234,0.042 0.35,0.054 0.234,0.024 0.472,0.024 0.708,0 0.117,-0.012 0.234,-0.029 0.348,-0.054 0.116,-0.022 0.23,-0.051 0.344,-0.084 0.111,-0.036 0.223,-0.076 0.332,-0.121 0.107,-0.044 0.214,-0.096 0.316,-0.149 0.105,-0.056 0.207,-0.116 0.303,-0.181 0.098,-0.065 0.194,-0.136 0.286,-0.21 0.091,-0.075 0.18,-0.155 0.263,-0.238 0.082,-0.082 0.162,-0.171 0.236,-0.263 0.076,-0.091 0.145,-0.187 0.212,-0.285 0.064,-0.096 0.124,-0.198 0.18,-0.301 0.054,-0.105 0.105,-0.212 0.15,-0.319 0.044,-0.109 0.085,-0.22 0.118,-0.332 0.035,-0.111 0.065,-0.227 0.087,-0.341 0.024,-0.116 0.042,-0.234 0.054,-0.35 0.01,-0.118 0.017,-0.236 0.017,-0.354 0,-0.118 -0.007,-0.237 -0.017,-0.355 -0.012,-0.116 -0.03,-0.234 -0.054,-0.35 -0.022,-0.113 -0.052,-0.229 -0.087,-0.341 -0.033,-0.111 -0.074,-0.223 -0.118,-0.332 -0.045,-0.107 -0.096,-0.214 -0.15,-0.318 -0.056,-0.103 -0.116,-0.206 -0.18,-0.304 -0.067,-0.098 -0.136,-0.191 -0.212,-0.283 -0.074,-0.091 -0.154,-0.18 -0.236,-0.263 -0.083,-0.082 -0.172,-0.162 -0.263,-0.238 -0.092,-0.074 -0.188,-0.145 -0.286,-0.21 -0.096,-0.065 -0.198,-0.125 -0.303,-0.18 -0.102,-0.056 -0.209,-0.105 -0.316,-0.15 -0.109,-0.044 -0.221,-0.084 -0.332,-0.12 -0.114,-0.034 -0.228,-0.062 -0.344,-0.085 -0.114,-0.024 -0.231,-0.042 -0.348,-0.053 -0.118,-0.011 -0.236,-0.018 -0.354,-0.018"
         clip-rule="evenodd"
         id="path1420" />
    </clipPath>
    <clipPath
       clipPathUnits="userSpaceOnUse"
       id="clipPath1430">
      <path
         d="M 0,0 H 1920 V 8414 H 0 Z"
         id="path1428" />
    </clipPath>
    <clipPath
       clipPathUnits="userSpaceOnUse"
       id="clipPath1440">
      <path
         d="m 214.208,8357.835 c 1.456,1.456 1.456,3.817 0,5.273 -1.456,1.456 -3.817,1.456 -5.274,0 l -10.734,-10.735 5.273,-5.273 z"
         clip-rule="evenodd"
         id="path1438" />
    </clipPath>
    <clipPath
       clipPathUnits="userSpaceOnUse"
       id="clipPath1448">
      <path
         d="M 0,0 H 1920 V 8414 H 0 Z"
         id="path1446" />
    </clipPath>
    <clipPath
       clipPathUnits="userSpaceOnUse"
       id="clipPath1458">
      <path
         d="m 184.766,8363.108 c -1.457,1.456 -3.817,1.456 -5.274,0 -1.456,-1.456 -1.456,-3.817 0,-5.273 l 10.735,-10.735 5.273,5.273 z"
         clip-rule="evenodd"
         id="path1456" />
    </clipPath>
    <clipPath
       clipPathUnits="userSpaceOnUse"
       id="clipPath1466">
      <path
         d="M 0,0 H 1920 V 8414 H 0 Z"
         id="path1464" />
    </clipPath>
  </defs>
  <g
     id="layer1"
     transform="translate(-170.2289,-99.773076)">
    <g
       id="g1332"
       transform="matrix(0.35277777,0,0,-0.35277777,121.89835,3054.2869)">
      <g
         id="g1334"
         clip-path="url(#clipPath1338)">
        <g
           id="g1340">
          <g
             id="g1342"
             clip-path="url(#clipPath1346)">
            <path
               d="m 132,8321.4 h 47.8 v 47.8 H 132 Z"
               style="fill:#002041;fill-opacity:1;fill-rule:nonzero;stroke:none"
               id="path1348" />
          </g>
        </g>
      </g>
    </g>
    <g
       id="g1350"
       transform="matrix(0.35277777,0,0,-0.35277777,121.89835,3054.2869)">
      <g
         id="g1352"
         clip-path="url(#clipPath1356)">
        <g
           id="g1358">
          <g
             id="g1360"
             clip-path="url(#clipPath1364)">
            <path
               d="m 214.8,8321.4 h 43.3 v 47.8 h -43.3 z"
               style="fill:#002041;fill-opacity:1;fill-rule:nonzero;stroke:none"
               id="path1366" />
          </g>
        </g>
      </g>
    </g>
    <g
       id="g1368"
       transform="matrix(0.35277777,0,0,-0.35277777,121.89835,3054.2869)">
      <g
         id="g1370"
         clip-path="url(#clipPath1374)">
        <g
           id="g1376">
          <g
             id="g1378"
             clip-path="url(#clipPath1382)">
            <g
               id="g1384">
              <g
                 id="g1386" />
              <g
                 id="g1414">
                <g
                   clip-path="url(#clipPath1390)"
                   id="g1412">
                  <g
                     id="g1410">
                    <g
                       id="g1408">
                      <g
                         clip-path="url(#clipPath1394)"
                         id="g1406">
                        <g
                           id="g1404">
                          <g
                             clip-path="url(#clipPath1398)"
                             id="g1402">
                            <path
                               d="m 255.58,8321.4 h 17.547 v 47.543 H 255.58 Z"
                               style="fill:#002041;fill-opacity:1;fill-rule:nonzero;stroke:none"
                               id="path1400" />
                          </g>
                        </g>
                      </g>
                    </g>
                  </g>
                </g>
              </g>
            </g>
          </g>
        </g>
      </g>
    </g>
    <g
       id="g1416"
       transform="matrix(0.35277777,0,0,-0.35277777,121.89835,3054.2869)">
      <g
         id="g1418"
         clip-path="url(#clipPath1422)">
        <g
           id="g1424">
          <g
             id="g1426"
             clip-path="url(#clipPath1430)">
            <path
               d="m 256.2,8362.8 h 17.2 v 17.2 h -17.2 z"
               style="fill:#002041;fill-opacity:1;fill-rule:nonzero;stroke:none"
               id="path1432" />
          </g>
        </g>
      </g>
    </g>
    <g
       id="g1434"
       transform="matrix(0.35277777,0,0,-0.35277777,121.89835,3054.2869)">
      <g
         id="g1436"
         clip-path="url(#clipPath1440)">
        <g
           id="g1442">
          <g
             id="g1444"
             clip-path="url(#clipPath1448)">
            <path
               d="m 193.2,8342.1 h 27.1 v 27.1 h -27.1 z"
               style="fill:#f6931d;fill-opacity:1;fill-rule:nonzero;stroke:none"
               id="path1450" />
          </g>
        </g>
      </g>
    </g>
    <g
       id="g1452"
       transform="matrix(0.35277777,0,0,-0.35277777,121.89835,3054.2869)">
      <g
         id="g1454"
         clip-path="url(#clipPath1458)">
        <g
           id="g1460">
          <g
             id="g1462"
             clip-path="url(#clipPath1466)">
            <path
               d="m 173.4,8342.1 h 27.1 v 27.1 h -27.1 z"
               style="fill:#f6931d;fill-opacity:1;fill-rule:nonzero;stroke:none"
               id="path1468" />
          </g>
        </g>
      </g>
    </g>
    <g
       id="g1470"
       transform="matrix(0.35277777,0,0,-0.35277777,121.89835,3054.2869)">
      <g
         id="g1472"
         clip-path="url(#clipPath1476)">
        <g
           id="g1478">
          <g
             id="g1480"
             clip-path="url(#clipPath1484)">
            <g
               id="g1486">
              <g
                 id="g1488" />
              <g
                 id="g1516">
                <g
                   clip-path="url(#clipPath1492)"
                   id="g1514">
                  <g
                     id="g1512">
                    <g
                       id="g1510">
                      <g
                         clip-path="url(#clipPath1496)"
                         id="g1508">
                        <g
                           id="g1506">
                          <g
                             clip-path="url(#clipPath1500)"
                             id="g1504">
                            <path
                               d="m 173.493,8322.3 h 47.543 v 34.211 h -47.543 z"
                               style="fill:#4c7c3d;fill-opacity:1;fill-rule:nonzero;stroke:none"
                               id="path1502" />
                          </g>
                        </g>
                      </g>
                    </g>
                  </g>
                </g>
              </g>
            </g>
          </g>
        </g>
      </g>
    </g>
  </g>
</svg>
